# xmcd
#
# Track frame offsets:
#	150
#	19707
#	38490
#	53897
#	66270
#	86862
#	102252
#	121125
#	133210
#	147547
#	159020
#	171087
#	186972
#	200127
#	212812
#	227157
#	239685
#	251967
#	269730
#	279807
#	292177
#
# Disc length: 4056 seconds
#
# Revision: 3
# Processed by: cddbd v1.5.2PL0 Copyright (c) Steve Scherf et al.
# Submitted via: EasyCDDAExtractor 16.1.0.1
#
DISCID=4b0fd615
DTITLE=Various Artist - The No. 1 Country Album CD 1
DYEAR=1900
DGENRE=Country
TTITLE0=Sheryl Crow - Leaving Las Vegas
TTITLE1=Jimmy Nail - Crocodile Shoes
TTITLE2=Billy Ray Cyrus - Achy Breaky Heart
TTITLE3=Nilsson - Everybody's Talkin'
TTITLE4=Amy Grant and Vince Gill - House Of Love
TTITLE5=Bluebells - Young At Heart
TTITLE6=Jimmy Buffet - Margaritaville
TTITLE7=Glen Cambell - Galvestone
TTITLE8=Dr. Hook - If Not You
TTITLE9=Johnny Cash - A Thing Called Love
TTITLE10=Dolly Parton - The Bargain Stone
TTITLE11=Willie Nelson - Always On My Mind
TTITLE12=Crystal Gayle - Talking In Your Sleep
TTITLE13=Don Williams - You're My Best Friend
TTITLE14=Charlie Pride - I Don't Know Why I Love You
TTITLE15=Roy Orbison - Crying
TTITLE16=Patsy Cline - Crazy
TTITLE17=Bobby Goldsboro - Honey
TTITLE18=Conway Twitty - It's Only Make Believe
TTITLE19=Hank Williams - I Saw The Light
TTITLE20=Tammy Wynette - Stand By Your Man
EXTD=
EXTT0=
EXTT1=
EXTT2=
EXTT3=
EXTT4=
EXTT5=
EXTT6=
EXTT7=
EXTT8=
EXTT9=
EXTT10=
EXTT11=
EXTT12=
EXTT13=
EXTT14=
EXTT15=
EXTT16=
EXTT17=
EXTT18=
EXTT19=
EXTT20=
PLAYORDER=
